<?xml version="1.0" encoding="UTF-8"?>
<svg id="Camada_2" data-name="Camada 2" xmlns="http://www.w3.org/2000/svg" viewBox="0 0 1644.4 219.48">
  <defs>
    <style>
      .cls-1 {
        font-family: Helvetica, Helvetica;
        font-size: 53.45px;
      }
    </style>
  </defs>
  <g id="Camada_1-2" data-name="Camada 1">
    <g>
      <g>
        <g>
          <path d="M19.12,98.04c2.99,7.89,2.77,15.89,2.59,22.32-.02.82-.04,1.61-.06,2.38-.09,4.84.14,9.79.69,14.76,2.2,1.49,4.37,3.05,6.49,4.66,2.74,2.08,4.26,3.4,5.37,4.35.86.74,1.43,1.23,2.26,1.84,2.58,1.86,4.14,2.23,6.97,2.9,2.44.58,5.48,1.3,9.71,3.1,3.4,1.44,8.08,3.42,12.62,6.96-1.65-4.06-1.7-7.7-.15-10.81.23-.47.66-1.21,1.31-2.01-.09-1.69-.19-3.37-.37-5.03-.68-6.34-6.47-6.86-9.8-10.67-2.48-2.83-4.17-8.24-6.72-11.86-1.29-1.82-2.44-1.35-1.96-4.3.15-.93,1.07-2.39,1.03-3.15-.04-.79-1.04-1.05-1.13-1.88-.02-.19.74-3.38.86-3.69.57-1.43,3.51-3.32,3.69-5.06.09-.85.09-4.51-.02-5.25-.55-3.62-2.99-5.95-4.15-.97-2.2-1.11-3.71-2.97-5.11-4.93l-.76.38c-.13-.93-1.35-5.08-1.79-5.61-.46-.55-2.89-.39-3.91-1.21-.92-.75-1.28-3.11-2.46-3.63-1.07-.47-1.86.59-2.68.4-1.99-.46-5.29-4.7-5.29-6.84,0-1.06.96-2.23,1.13-3.45.66-4.7-.31-9.73,1.57-14.36l-.78-.39c1.25-1.32.98-3.02,1.49-4.58.68-2.04,4.24-6.45,5.72-8.31,9.01-11.29,20.69-20.25,33.65-25.98,1.08-.48,2.5-.93,3.68-1.16l-.56,1.14c2.05.42,2.14-1.03,3.27-1.84.99-.7,4.42-2.44,5.07-.82l-5.31,2.66c1.1-.61,3.19-.27,3.9-.45.93-.23,2.95-2.87,4.06-2.4-.76.85-2.09,1.53-1.7,2.85,2.59,0,2.48-2.36,4.55-3.03l.18.75c.91.08,1.51-.91,2.44-.78.12.02.92,1.99,1.4.08l.71-.06c.11,1.08.84,1.57,1.9,1.52l-.76,1.32,2.27,1.14c-1.25,1.34-2.77,1.14-4.16.19l.19,2.28h-2.09s.38,1.13.38,1.13c-2.07.23-2.99-1.93-4.93-1.9l4.76-2.26-.18-1.37c-3.13-1.88-4.95,3.09-8.37,2.12l.38,2.27h-3.03s.56-1.14.56-1.14c-3.92,1.23-8.9,2.68-10.8,6.64,1.96-.04,2.12,2.31,4.17,2.09-.05.97-1.07,1.26-.37,2.27h-.86c-.91.14-.02,2.59,1.97.93.6-.5.79-1.44,1.29-1.93,1.38-1.34,3.97-1.8,4.61-3.54.15-.42-.18-.93.15-1.34.31-.39,1.03-.56,1.36-.93.74-.82,1.23-2.35,2.55-2.21.5.05,2.94,1.09,3.16,1.46.28.47-.2.99-.18,1.37.12,2.03,3.76-.94,4.13-.61-.04,3.31,2.39,4.68,4.54,6.66l-1.51,3.19c1.23.74,3.08.04,3.23,1.71.05.53-.27,1.18-.39,1.71l-1.12-.64-5.14-.13,3.41-4.17c-1.42.01-2.71,1.29-4,1.49-2.06.33-4.65-.31-6.72.11-1.68.34-4.31,2.49-5.58,3.7,2.56-.56,4.38-3.03,7.2-2.65l-1.89,1.33c1.53.52,1.01,1.56.76,2.84,1.99.37,2.92-.36,4.36-1.5l.39,1.14-6.48,2.62c-1.73-.14,1.04-1.56.78-2.26-1.73.84-6.61,1.67-7.58,3.04-.4.57-.5,1.69-.64,1.82-.26.23-2.12.23-2.84.58-.14.07-.26.57-.59.75-1.82.98-3.01,1.31-3.89,3.29l-.56-1.13c-1.25,1.23-.02,3.26-1.47,3.98l.31.91c-2.41,1.4-6.65,3.39-8.02,5.84-1.37,2.44-1.5,6.27-2.2,8.99-2.12-.8-.47-6.48-1.57-7.15l-6.39-.81c-.2,1.22,1.76.54.16,1.88-1.01.27-1.7-1.88-4.97-.44-3.2,1.41-2.63,2.86-3.96,5.14-.55.93-1.59,1.37-2.04,2.51-.52,1.33-.96,7.75-.38,8.73.95,1.06,3.29.77,4.46.28,1.5-.62,3.11-5.29,5.97-4.84.52.53-1.42,4.02-1.79,4.83-.19.42-.7.47-.84.77-.18.41-1.29,4.09-1.16,4.26,1.06-.65,5.27-.56,5.91.37-.8,3.85-2.91,7.86.92,10.84,1.08.48,2.01-1.37,3.05-1.17,1.14.22,2.61,1.46,3.19,2.47.64.04,2.04-4.11,2.55-4.46.33-.23,1.18-.07,1.71-.37.9-.51,1.93-1.7,2.96-1.98.79-.21.58.41.56.93-.04.98-1.46,3.51-.76,3.98,1.75,1.19,1.27-2.26,1.18-2.99,1.17-.17,1.46-.64,2.05-1.56,1.01-.13,2.54,2.24,2.72,2.29.3.07,4.26.6,4.48.58.84-.05,1.81-1.25,2.95-1,.33.07.42.83.87,1.11,2.83,1.79,3.76,3.09,6.07,5.32,2.49,2.41,3.15,1.07,5.56,1.26,2.77.22,5.04,2.34,6.42,4.59.81,1.33,1.4,3.55,2.19,4.63.67.92,1.87,1.04,2.18,1.43.23.28.13.97.46,1.25.09.08,1.73-.28,2.45-.2,1.6.18,4.12,1.02,3.64,3.02,1.88-.76,3.07.11,4.78.34,5.38.72,3.18.69,7.23,3.01,1.22.7,2.76.53,3.45,1.85,2.87,5.47-4.38,8.57-6.15,11.9-1.16,2.19-.28,6.56-1.23,9.39-.48,1.45-2.68,3.42-3.14,5.2l-.66.47c-2.38,0-7.98,2.47-9.38,4.27-.96,1.22-.65,3.5-1.18,4.89-.52,1.37-2.45,3.5-4.05,5.02,1.12,2.03,1.75,3.55,1.91,3.96,2.1,5.3,2.25,8.55,2.35,10.93.09,1.94.12,2.74,1.32,4.92.48.87,1.01,1.7,1.64,2.66,1.5,2.32,3.36,5.2,5.13,9.85.25.65,1.08,2.9,1.73,5.4.65-2.5,1.48-4.75,1.73-5.4,1.77-4.65,3.63-7.54,5.13-9.85.62-.96,1.16-1.8,1.64-2.66,1.2-2.18,1.23-2.98,1.32-4.92.11-2.37.25-5.62,2.35-10.93.48-1.21,4.94-11.96,14.11-17.02,4.53-2.5,8.01-2.1,10.13-1.32,3.54,1.29,5.25,4.09,5.82,5.24,1.55,3.12,1.5,6.76-.15,10.82,4.54-3.54,9.22-5.52,12.62-6.96,4.24-1.79,7.27-2.51,9.71-3.1,2.83-.67,4.39-1.04,6.97-2.9.84-.6,1.4-1.09,2.26-1.84.05-.04.1-.09.16-.13.26-1.53.46-2.96.55-4.07.34-4.19-.34-5.79,1.34-10.04,2.25-5.72,3.62-6.78,2.74-13.75-.44-3.44-3.35-6.83-3.64-8.91-.12-.85.93-1.64,1.09-2.93.16-1.26-.21-6.66-1.76-6.96-.75-.14-1.91,1.09-2.8.52-2.46-6.61-5.48-1.34-9-.67-1.4.27-2.6-.41-4.07-.31-3.21.22-2.83,2.5-6.61-.21-3.65-2.61-3.81-3.43-6.09-6.8-.62-.91-2.02-1.74-2.67-2.65-.32-.45-.33-1.27-.39-1.33-.12-.12-1.31.79-1.78-.66-.18-.56-1.04-4.39-1.04-4.84,0-1.56.8-2.81.54-4.9-.25-1.99-1.94-4.47-1.88-6.46.01-.44,2.84-7.95,3.1-8.31.7-1.01,2.4-1.19,2.83-2.49.49-1.49-.69-3.36-.15-5.07.25-.8,1.19-.81,1.47-1.28.6-.98-.05-2.4.92-3.14,1.17.53,2.79,1.47,4.1,1.14.36-.09.5-.96,1.03-1.33,2.3-1.62,9.41-3.08,10.79.18.4.94-.09,1.84.74,2.67.69.7,3.2,1.08,4.4,1.66.69.33,4.42,2.85,4.72,2.86,1.03-.88-.39-2.63-.19-3.78.36-.36,4.33,2.21,5.54,2.29.43.03.93-1.22,2.04-.96-.35-.68-4.28-8-4.92-7.4l-.19.76-.95-.76-.19.76-5.12-4.75.74-.42.02-2.04,2.65,1.14.22-1.51c-.27-.53-5.34-4.08-6.28-3.42.56-.9.07-2.1-.96-2.28-.31-.05.29.87-.89.55-.44-.12-.68-.34-.43.39.72,2.09,3.25,4.67,4.92,6.08l-1.89,1.51c1.23,1.55,3.39,2.06,3.4,4.36-5.03-3.43-8.28-8.59-14.21-11-.67.79.3,1.43.76,1.89,1.82,1.8,5,3.27,7.38,4.19l-.38,1.13c-.44.38-8.78-6.34-9.84-5.29l-.03,1.08-3.01.04c-.19.76.84,1.37.7,2.03-.09.45-.97.75-1.1,1.59-.18,1.24,1.71,4-.08,5.01-.16.09-3.3.86-3.48.85-.17-.01-3.1-.88-3.25-.95-1.74-.89-3.06-6.18-4.18-7.95.18-1.27,6.24,1.27,6.8-.44.77-2.37-4.37-4.77-6.04-5.64l1.5-.23.05-1.05,1.5-.04c.06-1.63-.55-4.17,1.51-4.56l-.76-1.13c.86.03,1.08.67,2.07.78,1.8.2,2.44-1.02,3.99-.41-.42-1.03-1.09-2.06-2.26-2.31l.35-1.07-2.22-1.35.63-.76-1.99-1.33.57,1.14c-3.78.82-5.42-3.38-8.72-4.17-.17.75.39.9.79,1.29,2.85,2.81,6.93,3.09,8.68,7.24-1.36.69-2.24-1.45-3.21-2.1-.71-.47-1.73-.34-2.29-1.12l-.79,1.15c-4.97-.99-5.84-6.01-9.25-8.94,2.24-.61,5.04.33,7.09,1.25,1.01.45,3.21,3.07,4.28,1.22-9.65-4.14-19.7-7.38-30.19-8.68l-10-.81h-3.79C59.15,11.42,19.66,44,11.73,89.04c4.88,2.4,6.75,7.32,7.39,8.99ZM55.56,76.13l.05-1.72c-.74-.92-3.5-1.03-4.37-1.65-.44-.31-.15-1.09-.23-1.17-.35-.34-2.43.74-2.85,1.13l-.18-.75c4.5-2.56,7.98,1.55,11.75,3.41l-4.17.75ZM67.31,78.78c-1.95-1.28-3.43.73-4.36.75-.61.01-1.7-.79-2.75-.87l1.8-.26-1.14-2.27c1.47-.08,3.98-.03,5.19.87.09.07,1.34,1.71,1.25,1.77ZM139.21,32.1c-1.07-1.26-2.07-2.23-1-3.76,1.99.91,4.84,3.58,1,3.76ZM142.26,27.89c.62.36,7.2,3.48,6.18,4.62l-4.17.76.75-1.13-1.93-.63c.47-4.16-4.63-2.62-5.65-6.19,1.94-.13,3.22,1.64,4.81,2.58ZM126.07,20c-1.35,2.03-4.98,1.2-6.44-.38l6.44.38ZM90.93,13.47c1-.25,2.24-1.29,3.66-1.65,2.33-.58,17.35-.98,18.89-.09.18.11.29.79.63,1.05,1.75,1.32,2.45,1.39,3.24,3.79h-2.65s2.27.39,2.27.39c-2.34,1.83-6.08,2.7-9.01,3.5l-1.85,4.11c-2.52.14-7.47-2.95-6.53-5.84.31-.95,1.69-.59,1.85-1.39l-1.52-.76,1.52-.19-1.52-.58c1.32-3.17-1.11-1.9-2.77-2.27-.34-.08-.09-.82-.78-.77-1.45.11-4.29,1.22-5.75,1.51-.66.13-1.39-.01-2.06.02-.31-1.29,1.45-.6,2.38-.83ZM25.21,67.58c.11-1.92.44-4.88,1.91-6.25l-1.52,7.58c-.63.1-.41-.92-.39-1.34Z"/>
          <path d="M172.65,31.52l-5.66,1.03,1.02-1.54-2.62-.86c.64-5.65-6.3-3.56-7.67-8.42,2.63-.18,4.37,2.23,6.54,3.5.84.49,9.78,4.72,8.4,6.28Z"/>
          <path d="M158.75,25.86c2.71,1.24,6.58,4.86,1.36,5.1-1.46-1.72-2.81-3.03-1.36-5.1Z"/>
          <path d="M142.26,14.53c-1.83,2.76-6.77,1.63-8.76-.52l8.76.52Z"/>
          <g>
            <path d="M214.28,97.8c-.28-.76-.94-2.6-2.67-3.47-1.91-.97-4.03-.2-4.54,0-2.75,1.1-4.07,3.93-4.8,5.87-2.92,7.7-2.25,16-2.13,22.41.08,4.44-.05,10.74-1.07,18.41-2.02,1.31-5.02,3.33-8.52,5.99-4.73,3.59-5.42,4.6-7.76,6.29-6.2,4.47-9.02,2.93-17.88,6.67-4.64,1.96-10.43,4.47-15.21,9.87-5.49,6.2-6.36,12.54-7.33,12.27-1.44-.4-1.59-14.94,1.72-22.76.37-.87,1.67-3.76.49-6.14-.09-.18-.84-1.64-2.45-2.22-.49-.18-2.15-.68-5.07.93-7.52,4.15-11.39,13.92-11.39,13.92-3.52,8.89-.31,9.83-4,16.54-1.86,3.38-4.17,5.86-6.4,11.74-.12.32-.99,2.62-1.6,5.07-1.88,7.52-.96,14.98.27,20.28,10.94-1.36,26.22-4.83,41.63-14.41,2.13-1.33.39-.36,20.01-15.74,6.36-4.99,23.92-18.71,33.09-31.22,1.88-2.57,4.53-6.61,5.87-12.27.83-3.5.89-6.47.83-8.3.05-1.53,1.1-33.69-1.1-39.73Z"/>
            <path d="M100.39,194.13c-2.24-5.88-4.54-8.36-6.4-11.74-3.7-6.71-.48-7.66-4-16.54,0,0-3.87-9.77-11.39-13.92-2.92-1.61-4.58-1.11-5.07-.93-1.6.59-2.35,2.04-2.45,2.22-1.18,2.38.12,5.27.49,6.14,3.32,7.82,3.17,22.36,1.72,22.76-.97.27-1.84-6.06-7.33-12.27-4.78-5.41-10.57-7.91-15.21-9.87-8.86-3.75-11.68-2.2-17.88-6.67-2.33-1.68-3.03-2.69-7.76-6.29-3.5-2.66-6.5-4.68-8.52-5.99-1.01-7.67-1.15-13.97-1.07-18.41.12-6.41.78-14.71-2.13-22.41-.74-1.94-2.05-4.77-4.8-5.87-.51-.2-2.63-.97-4.54,0-1.72.87-2.39,2.71-2.67,3.47-2.2,6.04-1.15,38.21-1.1,39.73-.06,1.83,0,4.79.83,8.3,1.34,5.67,3.99,9.7,5.87,12.27,9.17,12.51,26.73,26.23,33.09,31.22,19.63,15.39,17.88,14.42,20.01,15.74,15.41,9.58,30.69,13.05,41.63,14.41,1.22-5.3,2.14-12.76.27-20.28-.61-2.45-1.48-4.75-1.6-5.07Z"/>
          </g>
        </g>
        <path d="M209.31,88.67C200.68,40.18,159.1,3.89,110.44,2.38,60.02.8,14.8,37.43,5.28,87.56l-2.29-.43c4.74-24.95,18.27-47.51,38.1-63.52C60.87,7.64,85.52-.73,110.52.05c49.75,1.55,92.27,38.65,101.09,88.21l-2.29.41Z"/>
      </g>
      <g>
        <g>
          <path d="M274.46,180.28c-7.02-2.13-10.42-6.38-10.42-12.33V33.55h97.18c0,2.34-1.49,3.4-4.25,3.4h-59.54v74.64h41.25v3.4h-41.25v66.98l-6.17.21c-7.23,0-12.76-.64-16.8-1.91Z"/>
          <path d="M408.64,178.15c-8.08-2.55-15.1-5.95-21.26-10.63-6.17-4.47-11.27-9.78-15.52-15.95-4.04-6.17-7.23-12.97-9.36-20.41-1.91-7.44-2.98-15.31-2.98-23.39,0-17.01,4.04-31.68,12.55-44.23,8.29-12.76,20.41-21.48,36.36-26.37,8.08-2.55,17.22-3.83,27.43-3.83s19.14,1.28,27.22,3.83c8.29,2.55,15.31,5.95,21.48,10.63,6.17,4.47,11.27,9.78,15.31,15.95s7.23,12.97,9.14,20.41c2.13,7.44,3.19,15.31,3.19,23.6,0,16.8-4.25,31.47-12.76,44.02-8.29,12.76-20.63,21.48-36.36,26.37-8.29,2.55-17.22,3.83-27.22,3.83s-19.14-1.28-27.22-3.83ZM470.94,150.93c5.32-12.97,8.08-27.86,8.08-44.02s-2.55-29.77-7.66-42.32c-7.66-18.71-19.56-28.28-35.51-28.49-9.14.21-16.59,2.76-22.54,7.87-6.17,5.1-10.84,11.91-14.03,20.41-3.19,8.51-5.1,15.95-5.53,22.54s-.64,11.27-.64,14.25c0,18.29,3.19,34.87,9.78,49.55,8.08,18.71,19.35,28.28,33.6,28.49,15.31-.21,26.79-9.57,34.45-28.28Z"/>
          <path d="M592.36,181.98c-14.89,0-27.64-2.76-38.7-8.72-13.61-7.02-20.63-18.07-21.48-32.96l-.21-53.59v-54.65l8.29-.21c16.8,0,25.09,4.68,25.09,14.25v47.21l.21,46.36c.21,9.78,1.91,17.44,4.68,23.18,2.76,5.74,6.38,9.57,10.85,11.91,4.25,2.34,8.72,3.61,13.4,3.61,8.29,0,15.52-2.55,21.9-7.66,7.44-5.95,11.27-15.95,11.48-29.56l1.49-107.6,8.29-.21c16.8,0,25.09,4.68,25.09,14.25l-1.49,94.2c-.85,14.89-8.72,25.73-23.6,32.32-11.69,5.32-25.3,7.87-40.83,7.87h-4.47Z"/>
          <path d="M701.88,180.28c-7.02-2.13-10.42-6.17-10.42-12.33V33.55h53.37c12.33,0,22.97,1.49,31.9,4.68,16.59,5.95,25.3,18.71,26.16,37.85,0,14.25-4.47,25.09-13.61,32.75-11.48,9.57-27.22,14.25-47.42,14.25h-17.01v58.9l-6.17.21c-7.23,0-12.76-.64-16.8-1.91ZM752.06,116.91c3.19-1.91,5.95-4.25,8.29-7.44,2.34-3.19,4.25-6.59,5.74-10.42,1.49-3.83,2.55-7.66,3.19-11.27s.85-7.23.85-10.21c0-13.4-3.61-24.03-10.63-32.32-4.89-5.53-10.84-8.29-17.86-8.29h-16.8v82.72h16.8c3.83,0,7.23-.85,10.42-2.76Z"/>
        </g>
        <path d="M802.88,172.93v9.26h-15.74v-10.19c4.67-6.66,12.09-6.35,15.74.93ZM794.02,169.23c-4.59.56-5.49,4.65-4.9,8.33,3.4-1.93,5.72-4.34,4.9-8.33ZM800.91,176.63c1.15-1.25-1.73-8.1-4.91-7.4-.67,3.19.93,7.06,4.91,7.4Z"/>
      </g>
      <g>
        <text class="cls-1" transform="translate(839.25 76.13)"><tspan x="0" y="0">Fórum de Universidades pela Paz</tspan></text>
        <text class="cls-1" transform="translate(839.25 130.77)"><tspan x="0" y="0">Foro de Universidades por la Paz</tspan></text>
        <text class="cls-1" transform="translate(839.25 189.31)"><tspan x="0" y="0">Forum of Universities for Peace</tspan></text>
      </g>
    </g>
  </g>
</svg>