<?xml version="1.0" encoding="UTF-8"?>
<svg id="Camada_2" data-name="Camada 2" xmlns="http://www.w3.org/2000/svg" viewBox="0 0 411.02 355.7">
  <defs>
    <style>
      .cls-1 {
        letter-spacing: 0em;
      }

      .cls-2 {
        font-family: Stagera, Stagera;
        font-size: 156.94px;
      }

      .cls-2, .cls-3 {
        fill: #fff;
      }

      .cls-4 {
        letter-spacing: -.02em;
      }

      .cls-5 {
        letter-spacing: 0em;
      }

      .cls-6 {
        letter-spacing: 0em;
      }
    </style>
  </defs>
  <g id="Camada_1-2" data-name="Camada 1">
    <g>
      <g>
        <path class="cls-3" d="M140.04,72.36c2.21,5.82,2.04,11.73,1.91,16.47-.02.6-.03,1.19-.04,1.75-.06,3.57.11,7.23.51,10.9,1.62,1.1,3.23,2.25,4.79,3.44,2.02,1.54,3.14,2.51,3.96,3.21.63.55,1.05.91,1.67,1.36,1.91,1.37,3.06,1.65,5.14,2.14,1.8.43,4.04.96,7.17,2.28,2.51,1.06,5.96,2.52,9.31,5.14-1.22-3-1.26-5.68-.11-7.98.17-.34.48-.89.97-1.48-.07-1.25-.14-2.49-.27-3.72-.5-4.68-4.78-5.07-7.23-7.88-1.83-2.09-3.07-6.08-4.96-8.75-.95-1.34-1.8-.99-1.45-3.18.11-.69.79-1.77.76-2.32-.03-.58-.77-.77-.84-1.39-.02-.14.55-2.49.64-2.72.42-1.05,2.59-2.45,2.72-3.74.07-.63.07-3.33-.02-3.88-.4-2.67-2.21-4.39-3.06-.72-1.63-.82-2.74-2.19-3.77-3.64l-.56.28c-.1-.68-.99-3.75-1.32-4.14-.34-.41-2.13-.29-2.88-.9-.68-.55-.94-2.29-1.82-2.68-.79-.35-1.37.44-1.98.3-1.47-.34-3.9-3.47-3.9-5.05,0-.78.71-1.64.83-2.54.49-3.47-.23-7.18,1.16-10.6l-.58-.29c.93-.97.72-2.23,1.1-3.38.5-1.51,3.13-4.76,4.22-6.13,6.65-8.33,15.27-14.94,24.84-19.17.8-.35,1.85-.69,2.71-.85l-.41.84c1.52.31,1.58-.76,2.42-1.36.73-.52,3.26-1.8,3.74-.6l-3.92,1.96c.81-.45,2.36-.2,2.88-.33.69-.17,2.18-2.12,3-1.77-.56.62-1.54,1.13-1.25,2.1,1.91,0,1.83-1.74,3.36-2.24l.13.55c.67.06,1.11-.67,1.8-.58.09.01.68,1.47,1.03.06l.52-.04c.08.8.62,1.16,1.4,1.12l-.56.97,1.68.84c-.92.99-2.04.84-3.07.14l.14,1.68h-1.54s.28.84.28.84c-1.52.17-2.21-1.43-3.63-1.4l3.51-1.67-.13-1.01c-2.31-1.39-3.65,2.28-6.18,1.56l.28,1.68h-2.24s.41-.84.41-.84c-2.89.91-6.57,1.98-7.97,4.9,1.45-.03,1.56,1.7,3.08,1.54-.04.72-.79.93-.28,1.68h-.64c-.67.1-.01,1.91,1.45.68.44-.37.58-1.06.95-1.43,1.02-.99,2.93-1.33,3.4-2.61.11-.31-.13-.68.11-.99.23-.29.76-.41,1.01-.69.54-.6.9-1.74,1.88-1.63.37.04,2.17.81,2.33,1.07.21.35-.15.73-.13,1.01.09,1.5,2.78-.69,3.05-.45-.03,2.44,1.77,3.46,3.35,4.92l-1.11,2.35c.91.54,2.27.03,2.38,1.26.04.39-.2.87-.28,1.27l-.83-.47-3.79-.09,2.52-3.07c-1.04,0-2,.95-2.95,1.1-1.52.24-3.43-.23-4.96.08-1.24.25-3.18,1.84-4.12,2.73,1.89-.41,3.23-2.23,5.31-1.96l-1.4.98c1.13.38.75,1.15.56,2.1,1.47.27,2.15-.27,3.22-1.11l.29.84-4.78,1.94c-1.28-.1.77-1.15.58-1.67-1.27.62-4.88,1.23-5.59,2.24-.3.42-.37,1.25-.48,1.34-.19.17-1.56.17-2.1.43-.11.05-.19.42-.44.55-1.34.73-2.22.97-2.87,2.43l-.41-.84c-.92.91-.02,2.41-1.08,2.93l.23.67c-1.78,1.03-4.91,2.5-5.92,4.31-1.01,1.8-1.1,4.63-1.62,6.64-1.57-.59-.35-4.78-1.16-5.28l-4.71-.6c-.14.9,1.3.4.12,1.39-.75.2-1.25-1.39-3.67-.32-2.36,1.04-1.94,2.11-2.93,3.79-.4.69-1.18,1.01-1.5,1.85-.38.98-.71,5.72-.28,6.45.7.78,2.43.57,3.29.21,1.11-.46,2.3-3.91,4.4-3.57.38.39-1.05,2.97-1.32,3.56-.14.31-.52.34-.62.57-.14.3-.95,3.02-.85,3.14.78-.48,3.89-.41,4.36.27-.59,2.84-2.15,5.8.68,8,.8.35,1.48-1.01,2.25-.86.84.16,1.93,1.08,2.36,1.82.47.03,1.51-3.03,1.88-3.29.24-.17.87-.05,1.26-.27.66-.37,1.42-1.25,2.19-1.46.58-.16.43.3.41.69-.03.72-1.08,2.59-.56,2.94,1.29.88.94-1.67.87-2.21.86-.13,1.08-.48,1.52-1.15.75-.1,1.87,1.66,2,1.69.22.05,3.14.44,3.31.43.62-.04,1.34-.93,2.18-.74.24.05.31.61.64.82,2.09,1.32,2.77,2.28,4.48,3.93,1.84,1.78,2.32.79,4.1.93,2.05.16,3.72,1.73,4.74,3.38.6.98,1.04,2.62,1.62,3.42.5.68,1.38.77,1.61,1.05.17.21.1.72.34.92.07.06,1.28-.21,1.81-.15,1.18.13,3.04.75,2.69,2.23,1.39-.56,2.27.08,3.52.25,3.97.53,2.35.51,5.34,2.22.9.52,2.04.39,2.55,1.37,2.12,4.04-3.23,6.32-4.54,8.78-.86,1.62-.21,4.84-.91,6.93-.36,1.07-1.98,2.52-2.32,3.84l-.49.35c-1.75,0-5.89,1.82-6.93,3.15-.71.9-.48,2.58-.87,3.61-.38,1.01-1.81,2.58-2.99,3.7.83,1.5,1.29,2.62,1.41,2.93,1.55,3.91,1.66,6.31,1.74,8.07.06,1.43.09,2.02.98,3.63.35.64.75,1.25,1.21,1.97,1.1,1.71,2.48,3.84,3.78,7.27.18.48.8,2.14,1.27,3.99.48-1.85,1.09-3.51,1.27-3.99,1.3-3.43,2.68-5.56,3.78-7.27.46-.71.86-1.33,1.21-1.97.88-1.61.91-2.2.97-3.63.08-1.75.19-4.15,1.74-8.07.35-.89,3.65-8.82,10.42-12.56,3.34-1.85,5.91-1.55,7.47-.98,2.61.96,3.87,3.02,4.29,3.86,1.15,2.3,1.11,4.99-.11,7.98,3.35-2.61,6.8-4.07,9.31-5.14,3.13-1.32,5.37-1.86,7.17-2.28,2.09-.5,3.24-.77,5.14-2.14.62-.45,1.04-.81,1.67-1.36.04-.03.08-.07.11-.1.19-1.13.34-2.18.4-3,.25-3.09-.25-4.27.99-7.41,1.66-4.22,2.67-5,2.02-10.15-.32-2.54-2.47-5.04-2.69-6.58-.09-.63.69-1.21.81-2.16.12-.93-.15-4.91-1.3-5.14-.56-.11-1.41.8-2.06.39-1.81-4.88-4.05-.99-6.64-.49-1.03.2-1.92-.31-3-.23-2.37.16-2.09,1.84-4.88-.16-2.7-1.93-2.81-2.53-4.5-5.02-.46-.67-1.49-1.28-1.97-1.95-.24-.33-.24-.93-.29-.98-.09-.09-.97.58-1.31-.49-.13-.41-.77-3.24-.76-3.57,0-1.15.59-2.07.4-3.62-.18-1.47-1.43-3.3-1.39-4.77,0-.33,2.1-5.87,2.29-6.13.52-.75,1.77-.88,2.09-1.84.36-1.1-.51-2.48-.11-3.74.18-.59.88-.6,1.09-.94.44-.72-.04-1.77.68-2.32.86.39,2.06,1.08,3.02.84.26-.07.37-.71.76-.98,1.7-1.2,6.94-2.27,7.97.14.29.69-.07,1.35.55,1.97.51.51,2.36.8,3.25,1.23.51.24,3.26,2.1,3.48,2.11.76-.65-.29-1.94-.14-2.79.27-.27,3.2,1.63,4.09,1.69.32.02.68-.9,1.5-.71-.26-.5-3.16-5.91-3.63-5.46l-.14.56-.7-.56-.14.56-3.78-3.5.55-.31v-1.5s1.97.84,1.97.84l.16-1.11c-.2-.39-3.94-3.01-4.64-2.53.41-.66.05-1.55-.71-1.68-.23-.04.22.64-.66.41-.33-.09-.5-.25-.31.29.53,1.54,2.4,3.45,3.63,4.49l-1.39,1.12c.91,1.15,2.5,1.52,2.51,3.22-3.71-2.53-6.11-6.34-10.49-8.12-.49.58.22,1.05.56,1.4,1.34,1.33,3.69,2.42,5.45,3.09l-.28.83c-.33.28-6.48-4.68-7.26-3.91l-.02.8-2.22.03c-.14.56.62,1.01.52,1.5-.07.33-.72.55-.81,1.17-.14.92,1.27,2.95-.06,3.7-.12.07-2.44.64-2.57.63-.12,0-2.28-.65-2.4-.7-1.29-.65-2.26-4.56-3.08-5.87.13-.93,4.6.94,5.02-.32.57-1.75-3.22-3.52-4.46-4.16l1.1-.17.03-.78,1.1-.03c.05-1.2-.41-3.08,1.12-3.37l-.56-.83c.64.02.8.5,1.53.58,1.33.15,1.8-.75,2.95-.3-.31-.76-.81-1.52-1.67-1.71l.26-.79-1.64-1,.46-.56-1.47-.98.42.84c-2.79.61-4-2.5-6.43-3.07-.13.55.29.66.59.95,2.1,2.07,5.12,2.28,6.41,5.35-1,.51-1.65-1.07-2.37-1.55-.52-.35-1.28-.25-1.69-.83l-.58.85c-3.67-.73-4.31-4.44-6.83-6.6,1.65-.45,3.72.25,5.23.92.75.33,2.37,2.27,3.16.9-7.12-3.06-14.54-5.44-22.28-6.41l-7.38-.59h-2.8c-34,1.51-63.15,25.55-69,58.8,3.61,1.77,4.98,5.4,5.45,6.64ZM166.93,56.18l.03-1.27c-.55-.68-2.59-.76-3.23-1.22-.32-.23-.11-.81-.17-.87-.26-.25-1.79.55-2.1.84l-.13-.55c3.32-1.89,5.89,1.14,8.67,2.52l-3.07.55ZM175.6,58.14c-1.44-.95-2.53.54-3.22.55-.45,0-1.26-.58-2.03-.64l1.33-.19-.84-1.68c1.09-.06,2.93-.03,3.83.65.06.05.99,1.26.93,1.31ZM228.67,23.69c-.79-.93-1.53-1.65-.74-2.77,1.47.67,3.58,2.64.74,2.77ZM230.92,20.58c.45.27,5.31,2.57,4.56,3.41l-3.07.56.56-.84-1.43-.47c.35-3.07-3.42-1.93-4.17-4.57,1.43-.1,2.37,1.21,3.55,1.9ZM218.97,14.76c-.99,1.5-3.68.88-4.76-.28l4.76.28ZM193.03,9.94c.74-.19,1.65-.95,2.7-1.21,1.72-.43,12.81-.72,13.94-.07.13.08.21.58.47.78,1.29.97,1.81,1.03,2.39,2.8h-1.96s1.68.29,1.68.29c-1.73,1.35-4.49,2-6.65,2.58l-1.37,3.03c-1.86.1-5.51-2.18-4.82-4.31.23-.7,1.25-.44,1.36-1.03l-1.12-.56,1.12-.14-1.12-.42c.98-2.34-.82-1.4-2.05-1.68-.25-.06-.07-.6-.58-.57-1.07.08-3.17.9-4.24,1.11-.49.1-1.03-.01-1.52.01-.23-.95,1.07-.44,1.76-.62ZM144.53,49.88c.08-1.42.32-3.6,1.41-4.61l-1.12,5.6c-.47.07-.31-.68-.29-.99Z"/>
        <path class="cls-3" d="M253.34,23.26l-4.18.76.75-1.13-1.94-.64c.47-4.17-4.65-2.63-5.66-6.21,1.94-.13,3.23,1.65,4.83,2.58.62.36,7.22,3.49,6.2,4.64Z"/>
        <path class="cls-3" d="M243.09,19.08c2,.92,4.86,3.59,1,3.77-1.08-1.27-2.08-2.24-1-3.77Z"/>
        <path class="cls-3" d="M230.91,10.72c-1.35,2.04-5,1.2-6.46-.38l6.46.38Z"/>
        <g>
          <path class="cls-3" d="M284.07,72.18c-.2-.56-.7-1.92-1.97-2.56-1.41-.71-2.97-.15-3.35,0-2.03.81-3,2.9-3.54,4.33-2.15,5.68-1.66,11.81-1.58,16.54.06,3.28-.04,7.92-.79,13.59-1.49.97-3.71,2.46-6.29,4.42-3.49,2.65-4,3.4-5.73,4.64-4.58,3.3-6.66,2.16-13.19,4.92-3.42,1.45-7.69,3.3-11.23,7.29-4.05,4.58-4.69,9.25-5.41,9.05-1.06-.3-1.18-11.03,1.27-16.8.27-.64,1.24-2.77.36-4.53-.07-.14-.62-1.21-1.81-1.64-.36-.13-1.59-.5-3.74.69-5.55,3.06-8.4,10.27-8.4,10.27-2.6,6.56-.23,7.25-2.95,12.21-1.37,2.49-3.08,4.32-4.73,8.67-.09.24-.73,1.94-1.18,3.74-1.39,5.55-.7,11.06.2,14.97,8.07-1,19.35-3.56,30.72-10.63,1.58-.98.29-.26,14.77-11.62,4.7-3.68,17.65-13.81,24.42-23.04,1.39-1.9,3.34-4.88,4.33-9.06.61-2.59.66-4.78.61-6.12.04-1.13.81-24.87-.81-29.32Z"/>
          <path class="cls-3" d="M200.02,143.28c-1.65-4.34-3.35-6.17-4.73-8.67-2.73-4.96-.36-5.65-2.95-12.21,0,0-2.86-7.21-8.4-10.27-2.15-1.19-3.38-.82-3.74-.69-1.18.43-1.74,1.5-1.81,1.64-.87,1.76.09,3.89.36,4.53,2.45,5.77,2.34,16.5,1.27,16.8-.72.2-1.36-4.47-5.41-9.05-3.53-3.99-7.8-5.84-11.23-7.29-6.54-2.76-8.62-1.63-13.19-4.92-1.72-1.24-2.24-1.99-5.73-4.64-2.58-1.96-4.79-3.45-6.29-4.42-.75-5.66-.85-10.31-.79-13.59.09-4.73.58-10.86-1.58-16.54-.54-1.43-1.51-3.52-3.54-4.33-.37-.15-1.94-.71-3.35,0-1.27.64-1.76,2-1.97,2.56-1.62,4.46-.85,28.2-.81,29.32-.04,1.35,0,3.54.61,6.12.99,4.18,2.94,7.16,4.33,9.06,6.77,9.23,19.72,19.36,24.42,23.04,14.48,11.36,13.19,10.64,14.77,11.62,11.37,7.07,22.65,9.63,30.72,10.63.9-3.91,1.58-9.41.2-14.97-.45-1.81-1.09-3.51-1.18-3.74Z"/>
        </g>
      </g>
      <path class="cls-3" d="M280.4,65.44C274.03,29.66,243.35,2.87,207.43,1.76c-37.21-1.16-70.59,25.87-77.61,62.86l-1.69-.32c3.5-18.41,13.48-35.06,28.12-46.88C170.85,5.64,189.04-.54,207.49.04c36.72,1.14,68.1,28.52,74.61,65.1l-1.69.3Z"/>
    </g>
    <text class="cls-2" transform="translate(0 299.21)"><tspan class="cls-4" x="0" y="0">F</tspan><tspan class="cls-6" x="79.25" y="0">O</tspan><tspan class="cls-1" x="198.37" y="0">U</tspan><tspan class="cls-5" x="315.45" y="0">P</tspan></text>
  </g>
</svg>